<?xml version="1.0" encoding="iso-8859-1"?>
<!-- Generator: Adobe Illustrator 19.0.0, SVG Export Plug-In . SVG Version: 6.00 Build 0)  -->
<svg version="1.1" id="Layer_1" xmlns="http://www.w3.org/2000/svg" xmlns:xlink="http://www.w3.org/1999/xlink" x="0px" y="0px"
	 viewBox="0 0 512 512" style="enable-background:new 0 0 512 512;" xml:space="preserve">
<rect x="90.681" y="10.199" style="fill:#E8E8E8;" width="266.75" height="491.602"/>
<g>
	<rect x="135.649" y="53.636" style="fill:#F07057;" width="63.368" height="63.368"/>
	<rect x="249.105" y="53.636" style="fill:#F07057;" width="63.368" height="63.368"/>
	<rect x="135.649" y="166.063" style="fill:#F07057;" width="63.368" height="63.368"/>
	<rect x="249.105" y="166.063" style="fill:#F07057;" width="63.368" height="63.368"/>
	<rect x="135.649" y="278.489" style="fill:#F07057;" width="63.368" height="63.368"/>
	<rect x="249.105" y="278.489" style="fill:#F07057;" width="63.368" height="63.368"/>
</g>
<rect x="171.938" y="396.025" style="fill:#84B3D2;" width="104.246" height="105.786"/>
<path style="fill:#F07057;" d="M421.315,386.907c0,34.15-61.834,113.361-61.834,113.361s-61.834-79.212-61.834-113.361
	s27.684-61.834,61.834-61.834S421.315,352.757,421.315,386.907z"/>
<circle style="fill:#84B3D2;" cx="359.481" cy="386.907" r="22.673"/>
<path d="M135.655,127.201h63.367c5.633,0,10.199-4.566,10.199-10.199V53.636c0-5.633-4.566-10.199-10.199-10.199h-63.367
	c-5.633,0-10.199,4.566-10.199,10.199v63.367C125.455,122.635,130.021,127.201,135.655,127.201z M145.854,63.835h42.968v42.968
	h-42.968V63.835z"/>
<path d="M249.101,127.201h63.367c5.633,0,10.199-4.566,10.199-10.199V53.636c0-5.633-4.566-10.199-10.199-10.199h-63.367
	c-5.633,0-10.199,4.566-10.199,10.199v63.367C238.902,122.635,243.468,127.201,249.101,127.201z M259.3,63.835h42.968v42.968H259.3
	V63.835z"/>
<path d="M135.655,239.626h63.367c5.633,0,10.199-4.566,10.199-10.199V166.06c0-5.633-4.566-10.199-10.199-10.199h-63.367
	c-5.633,0-10.199,4.566-10.199,10.199v63.367C125.455,235.06,130.021,239.626,135.655,239.626z M145.854,176.26h42.968v42.968
	h-42.968V176.26z"/>
<path d="M249.101,239.626h63.367c5.633,0,10.199-4.566,10.199-10.199V166.06c0-5.633-4.566-10.199-10.199-10.199h-63.367
	c-5.633,0-10.199,4.566-10.199,10.199v63.367C238.902,235.06,243.468,239.626,249.101,239.626z M259.3,176.26h42.968v42.968H259.3
	V176.26z"/>
<path d="M199.021,352.051c5.633,0,10.199-4.566,10.199-10.199v-63.367c0-5.633-4.566-10.199-10.199-10.199h-63.367
	c-5.633,0-10.199,4.566-10.199,10.199v63.367c0,5.633,4.566,10.199,10.199,10.199H199.021z M145.854,288.684h42.968v42.968h-42.968
	V288.684z"/>
<path d="M357.438,512c0.396,0,0.824-0.042,1.267-0.113c3.47-0.559,6.578-2.516,8.76-5.272c0.019-0.024,0.038-0.048,0.056-0.071
	c6.55-8.391,63.993-83.035,63.993-119.638c0-36.961-27.986-67.493-63.878-71.559V10.199C367.636,4.566,363.07,0,357.437,0H90.685
	c-5.633,0-10.199,4.566-10.199,10.199v491.602c0,5.633,4.566,10.199,10.199,10.199H357.438z M411.116,386.907
	c0,19.848-28.992,65.769-51.635,96.475c-22.642-30.698-51.632-76.609-51.632-96.475c0-28.471,23.162-51.634,51.633-51.634
	C387.952,335.272,411.116,358.436,411.116,386.907z M302.269,331.653H259.3v-42.968h42.968V331.653z M100.884,20.398h246.355
	v295.537c-8.842,1.521-17.138,4.649-24.572,9.089v-46.539c0-5.633-4.566-10.199-10.199-10.199h-63.367
	c-5.633,0-10.199,4.566-10.199,10.199v63.367c0,5.633,4.566,10.199,10.199,10.199h47.37c-5.74,10.336-9.022,22.218-9.022,34.856
	c0,28.22,34.142,79.048,52.783,104.695h-53.848V396.02c0-5.633-4.566-10.199-10.199-10.199H171.937
	c-5.633,0-10.199,4.566-10.199,10.199v95.582h-60.854V20.398z M234.26,491.602v-31.193c0-5.633-4.566-10.199-10.199-10.199
	c-5.633,0-10.199,4.566-10.199,10.199v31.193h-31.726v-85.383h83.85v85.383H234.26z"/>
<path d="M326.61,386.907c0,18.125,14.746,32.871,32.871,32.871s32.871-14.746,32.871-32.871s-14.746-32.871-32.871-32.871
	S326.61,368.781,326.61,386.907z M371.955,386.907c0,6.877-5.595,12.473-12.473,12.473c-6.877,0-12.473-5.595-12.473-12.473
	c0-6.877,5.595-12.473,12.473-12.473C366.359,374.434,371.955,380.028,371.955,386.907z"/>
<path d="M224.061,418.526c-5.633,0-10.199,4.566-10.199,10.199v1.022c0,5.633,4.566,10.199,10.199,10.199
	c5.633,0,10.199-4.566,10.199-10.199v-1.022C234.26,423.093,229.694,418.526,224.061,418.526z"/>
<g>
</g>
<g>
</g>
<g>
</g>
<g>
</g>
<g>
</g>
<g>
</g>
<g>
</g>
<g>
</g>
<g>
</g>
<g>
</g>
<g>
</g>
<g>
</g>
<g>
</g>
<g>
</g>
<g>
</g>
</svg>
