<?xml version="1.0" encoding="iso-8859-1"?>
<!-- Generator: Adobe Illustrator 19.0.0, SVG Export Plug-In . SVG Version: 6.00 Build 0)  -->
<svg version="1.1" id="Layer_1" xmlns="http://www.w3.org/2000/svg" xmlns:xlink="http://www.w3.org/1999/xlink" x="0px" y="0px"
	 viewBox="0 0 392.541 392.541" style="enable-background:new 0 0 392.541 392.541;" xml:space="preserve">
<circle style="fill:#FFC10D;" cx="196.244" cy="195.927" r="155.863"/>
<path style="fill:#194F82;" d="M362.709,23.45c-0.065-0.065-0.065-0.065-0.129-0.129C326.313-7.774,271.622-3.637,240.591,32.5
	L63.589,238.464c-22.432,26.053-19.459,65.422,6.465,87.855c0.065,0,0.129,0.065,0.129,0.065
	c26.117,22.432,65.552,19.394,87.919-6.659l108.929-126.707c3.879-4.59,3.426-11.378-1.164-15.321
	c-4.59-3.943-11.442-3.426-15.386,1.164L141.553,305.567c-14.61,17.002-40.275,18.941-57.277,4.331l-0.065-0.065
	c-16.937-14.61-18.877-40.275-4.267-57.212L256.818,46.658c23.337-27.022,64.323-30.125,91.345-6.853
	c0.065,0,0.065,0.065,0.129,0.065c25.471,21.527,30.901,63.935,6.788,91.152L178.208,337.05
	c-38.723,41.956-93.349,37.43-125.414,9.503c0-0.065-0.065-0.129-0.129-0.129c-38.788-34.909-39.693-88.76-9.244-125.285
	L156.098,90.1c3.879-4.59,3.426-11.378-1.164-15.321c-4.59-3.943-11.442-3.426-15.386,1.164L26.87,206.981
	c-36.008,43.507-39.305,111.903,11.572,155.863c0.065,0.065,0.129,0.065,0.129,0.259c49.519,42.731,118.432,31.677,156.121-11.83
	l177.131-205.964c0-0.065,0-0.065,0-0.065C400.721,112.791,400.915,56.484,362.709,23.45z"/>
<g>
</g>
<g>
</g>
<g>
</g>
<g>
</g>
<g>
</g>
<g>
</g>
<g>
</g>
<g>
</g>
<g>
</g>
<g>
</g>
<g>
</g>
<g>
</g>
<g>
</g>
<g>
</g>
<g>
</g>
</svg>
