<?xml version="1.0" encoding="iso-8859-1"?>
<!-- Generator: Adobe Illustrator 19.0.0, SVG Export Plug-In . SVG Version: 6.00 Build 0)  -->
<svg version="1.1" id="Layer_1" xmlns="http://www.w3.org/2000/svg" xmlns:xlink="http://www.w3.org/1999/xlink" x="0px" y="0px"
	 viewBox="0 0 496.2 496.2" style="enable-background:new 0 0 496.2 496.2;" xml:space="preserve">
<path style="fill:#25B7D3;" d="M496.2,248.1C496.2,111.1,385.1,0,248.1,0S0,111.1,0,248.1s111.1,248.1,248.1,248.1
	S496.2,385.1,496.2,248.1z"/>
<path style="fill:#E8DEB3;" d="M442.4,247.2c0,8.2-5.8,14.8-13,14.8h-67.1c-7.1,0-13-6.6-13-14.8l0,0c0-8.2,5.8-14.8,13-14.8h67.1
	C436.6,232.3,442.4,239,442.4,247.2L442.4,247.2z"/>
<path style="fill:#ABD9DF;" d="M413.5,244.3c0-10.8-61.5-77.3-83.5-77.3H113.3C91.2,167,80,179.6,80,201.7v86.6
	c0,22.1,11.2,33.3,33.3,33.3H330C352.1,321.5,413.5,255,413.5,244.3z M336.7,247.1c0-8.6,7-15.5,15.5-15.5c8.6,0,15.5,7,15.5,15.5
	c0,8.6-7,15.5-15.5,15.5C343.6,262.7,336.7,255.7,336.7,247.1z"/>
<path style="fill:#226E72;" d="M269.4,213.5c0,6.6-7.5,11.3-7.9,10.7c-5.6-6.4-15.1-11.3-24.8-11.3c-9.8,0-15.8,4.4-15.8,11
	c0,7.6,8.1,9.7,19.3,12.2c13.5,2.9,31.2,8.4,31.2,27.5c0,14.8-10.3,25-27.4,27.7v5.7c0,6.7-2.6,10-8.5,10h-0.7
	c-6.1,0-8.3-3.1-8.3-10v-5.4c-17.7-1.9-27.8-10-27.8-18.2c0-6.3,7-10.8,7.6-10.3c5.6,6.7,16.4,12.3,27.8,12.3
	c10.4,0,16.4-4.4,16.4-11c0-8.1-9.1-10.3-19.8-12.7c-12.9-2.8-29.9-7.9-29.9-27.2c0-14.1,10-24.2,25.8-27.1V192c0-6.7,2.5-10,8.4-10
	h0.9c6,0,8.3,3.1,8.3,10v5C260.5,198.7,269.4,206,269.4,213.5z"/>
<path style="fill:#F7F5ED;" d="M442.4,250.2c0,7.2-5.8,13-13,13H362c-7.2,0-13-5.8-13-13l0,0c0-7.2,5.8-13,13-13h67.4
	C436.6,237.2,442.4,243,442.4,250.2L442.4,250.2z"/>
<g>
</g>
<g>
</g>
<g>
</g>
<g>
</g>
<g>
</g>
<g>
</g>
<g>
</g>
<g>
</g>
<g>
</g>
<g>
</g>
<g>
</g>
<g>
</g>
<g>
</g>
<g>
</g>
<g>
</g>
</svg>
