<?xml version="1.0" encoding="iso-8859-1"?>
<!-- Generator: Adobe Illustrator 18.0.0, SVG Export Plug-In . SVG Version: 6.00 Build 0)  -->
<!DOCTYPE svg PUBLIC "-//W3C//DTD SVG 1.1//EN" "http://www.w3.org/Graphics/SVG/1.1/DTD/svg11.dtd">
<svg version="1.1" id="Capa_1" xmlns="http://www.w3.org/2000/svg" xmlns:xlink="http://www.w3.org/1999/xlink" x="0px" y="0px"
	 viewBox="0 0 435.06 435.06" style="enable-background:new 0 0 435.06 435.06;" xml:space="preserve">
<g>
	<path style="fill:#E77200;" d="M412.09,121.86v134.75c0,8.91-7.23,16.14-16.15,16.14H292.08h-10.31l-16.08,11.22l-46.81,32.64
		v-43.86h-40.32c-8.92,0-16.15-7.23-16.15-16.14V121.86c0-8.91,7.23-16.14,16.15-16.14h87.13h26.39h103.86
		C404.86,105.72,412.09,112.95,412.09,121.86z"/>
	<path style="fill:#7C6655;" d="M292.08,105.72V21.98C292.08,9.84,282.24,0,270.1,0H44.95C32.81,0,22.97,9.84,22.97,21.98v391.11
		c0,12.13,9.84,21.97,21.98,21.97H270.1c12.14,0,21.98-9.84,21.98-21.97V272.75h-10.31l-16.08,11.22v82.74H49.36V68.35h216.33v37.37
		H292.08z M157.52,387.48c6.41,0,11.61,5.2,11.61,11.62c0,6.41-5.2,11.61-11.61,11.61c-6.41,0-11.61-5.2-11.61-11.61
		C145.91,392.68,151.11,387.48,157.52,387.48z"/>
	<path style="fill:#88C9B3;" d="M162.41,256.61c0,8.91,7.23,16.14,16.15,16.14h40.32v43.86l46.81-32.64v82.74H49.36V68.35h216.33
		v37.37h-87.13c-8.92,0-16.15,7.23-16.15,16.14V256.61z"/>
	<path style="fill:#665040;" d="M157.52,387.48c6.41,0,11.61,5.2,11.61,11.62c0,6.41-5.2,11.61-11.61,11.61
		c-6.41,0-11.61-5.2-11.61-11.61C145.91,392.68,151.11,387.48,157.52,387.48z"/>
	<path style="fill:#665040;" d="M184.443,42.341h-53.847c-4.142,0-7.5-3.358-7.5-7.5s3.358-7.5,7.5-7.5h53.847
		c4.142,0,7.5,3.358,7.5,7.5S188.585,42.341,184.443,42.341z"/>
	<g>
		<rect x="208.745" y="144.336" style="fill:#7C6655;" width="157.012" height="15"/>
		<rect x="208.745" y="181.736" style="fill:#7C6655;" width="157.012" height="15"/>
		<rect x="208.745" y="219.135" style="fill:#7C6655;" width="157.012" height="15"/>
	</g>
	<path style="fill:#51B7A6;" d="M218.88,289.15h-40.32c-8.92,0-16.15-7.23-16.15-16.14v-16.4c0,8.91,7.23,16.14,16.15,16.14h40.32
		V289.15z"/>
	<polygon style="fill:#51B7A6;" points="265.69,283.97 265.69,300.37 218.88,333.01 218.88,316.61 	"/>
	<polygon style="fill:#665040;" points="292.08,272.75 292.08,289.15 281.77,289.15 265.69,300.37 265.69,283.97 281.77,272.75 	"/>
</g>
<g>
</g>
<g>
</g>
<g>
</g>
<g>
</g>
<g>
</g>
<g>
</g>
<g>
</g>
<g>
</g>
<g>
</g>
<g>
</g>
<g>
</g>
<g>
</g>
<g>
</g>
<g>
</g>
<g>
</g>
</svg>
