<?xml version="1.0" encoding="iso-8859-1"?>
<!-- Generator: Adobe Illustrator 19.1.0, SVG Export Plug-In . SVG Version: 6.00 Build 0)  -->
<svg version="1.1" id="Capa_1" xmlns="http://www.w3.org/2000/svg" xmlns:xlink="http://www.w3.org/1999/xlink" x="0px" y="0px"
	 viewBox="0 0 452.84 452.84" style="enable-background:new 0 0 452.84 452.84;" xml:space="preserve">
<g>
	<path d="M380.165,33.9v385.04c0,18.69-15.21,33.9-33.9,33.9h-239.68c-18.7,0-33.91-15.21-33.91-33.9V33.9
		c0-18.69,15.21-33.9,33.91-33.9h239.68C364.955,0,380.165,15.21,380.165,33.9z M365.165,418.94v-44.78H87.675v44.78
		c0,10.42,8.48,18.9,18.91,18.9h239.68C356.685,437.84,365.165,429.36,365.165,418.94z M365.165,359.16V93.68H87.675v265.48H365.165
		z M365.165,78.68V33.9c0-10.42-8.48-18.9-18.9-18.9h-239.68c-10.43,0-18.91,8.48-18.91,18.9v44.78H365.165z"/>
	<path style="fill:#F48C6C;" d="M365.165,374.16v44.78c0,10.42-8.48,18.9-18.9,18.9h-239.68c-10.43,0-18.91-8.48-18.91-18.9v-44.78
		H365.165z M251.925,406.48c0-14.06-11.44-25.5-25.5-25.5s-25.5,11.44-25.5,25.5s11.44,25.5,25.5,25.5
		S251.925,420.54,251.925,406.48z"/>
	<path style="fill:#F48C6C;" d="M365.165,33.9v44.78H87.675V33.9c0-10.42,8.48-18.9,18.91-18.9h239.68
		C356.685,15,365.165,23.48,365.165,33.9z M274.425,48.2c0-4.15-3.36-7.5-7.5-7.5h-81c-4.14,0-7.5,3.35-7.5,7.5
		c0,4.14,3.36,7.5,7.5,7.5h81C271.065,55.7,274.425,52.34,274.425,48.2z"/>
	<path d="M334.385,206.01c2.27,2.09,3.03,5.37,1.91,8.25c-1.12,2.88-3.9,4.77-6.99,4.77h-20.32v116.82c0,4.14-3.36,7.5-7.5,7.5
		h-150.12c-4.15,0-7.5-3.36-7.5-7.5V219.03h-20.33c-3.09,0-5.86-1.89-6.99-4.77c-1.12-2.88-0.36-6.16,1.92-8.25l102.88-94.54
		c2.87-2.64,7.28-2.64,10.15,0L334.385,206.01z M301.485,204.03h8.57l-83.63-76.85l-83.64,76.85h8.58c4.14,0,7.5,3.36,7.5,7.5
		v116.82h135.12V211.53C293.985,207.39,297.335,204.03,301.485,204.03z"/>
	<path style="fill:#3DD0F2;" d="M310.055,204.03h-8.57c-4.15,0-7.5,3.36-7.5,7.5v116.82h-135.12V211.53c0-4.14-3.36-7.5-7.5-7.5
		h-8.58l83.64-76.85L310.055,204.03z M262.425,287.99v-61.5c0-4.14-3.36-7.5-7.5-7.5h-57c-4.14,0-7.5,3.36-7.5,7.5v61.5
		c0,4.14,3.36,7.5,7.5,7.5h57C259.065,295.49,262.425,292.13,262.425,287.99z"/>
	<path d="M266.925,40.7c4.14,0,7.5,3.35,7.5,7.5c0,4.14-3.36,7.5-7.5,7.5h-81c-4.14,0-7.5-3.36-7.5-7.5c0-4.15,3.36-7.5,7.5-7.5
		H266.925z"/>
	<path d="M262.425,226.49v61.5c0,4.14-3.36,7.5-7.5,7.5h-57c-4.14,0-7.5-3.36-7.5-7.5v-61.5c0-4.14,3.36-7.5,7.5-7.5h57
		C259.065,218.99,262.425,222.35,262.425,226.49z M247.425,280.49v-46.5h-42v46.5H247.425z"/>
	<path d="M226.425,380.98c14.06,0,25.5,11.44,25.5,25.5s-11.44,25.5-25.5,25.5s-25.5-11.44-25.5-25.5S212.365,380.98,226.425,380.98
		z M236.925,406.48c0-5.79-4.71-10.5-10.5-10.5c-5.79,0-10.5,4.71-10.5,10.5c0,5.79,4.71,10.5,10.5,10.5
		C232.215,416.98,236.925,412.27,236.925,406.48z"/>
</g>
<g>
</g>
<g>
</g>
<g>
</g>
<g>
</g>
<g>
</g>
<g>
</g>
<g>
</g>
<g>
</g>
<g>
</g>
<g>
</g>
<g>
</g>
<g>
</g>
<g>
</g>
<g>
</g>
<g>
</g>
</svg>
