<?xml version="1.0" encoding="iso-8859-1"?>
<!-- Generator: Adobe Illustrator 19.0.0, SVG Export Plug-In . SVG Version: 6.00 Build 0)  -->
<svg version="1.1" id="Layer_1" xmlns="http://www.w3.org/2000/svg" xmlns:xlink="http://www.w3.org/1999/xlink" x="0px" y="0px"
	 viewBox="0 0 512 512" style="enable-background:new 0 0 512 512;" xml:space="preserve">
<g>
	<path style="fill:#F28838;" d="M240.977,8.084h-10.77h-12.915h-10.772h-66.375h-10.77h-12.915h-10.772
		c-3.379,0-6.118,2.74-6.118,6.119v82.611c0,3.379,2.739,6.119,6.118,6.119h10.772h12.915h10.77h66.375h10.772h12.915h10.77
		c3.381,0,6.12-2.74,6.12-6.119V14.203C247.097,10.824,244.358,8.084,240.977,8.084z"/>
	<path style="fill:#F28838;" d="M497.795,409.066h-10.772H474.11h-10.772h-66.375H386.19h-12.913h-10.772
		c-3.379,0-6.12,2.741-6.12,6.12v82.611c0,3.379,2.741,6.118,6.12,6.118h10.772h12.913h10.772h66.375h10.772h12.913h10.772
		c3.379,0,6.12-2.739,6.12-6.118v-82.611C503.916,411.808,501.175,409.066,497.795,409.066z"/>
</g>
<g>
	<path style="fill:#EA6428;" d="M240.977,8.084h-10.77h-12.915h-10.772h-66.375h-10.77h-12.915h-10.772
		c-3.379,0-6.118,2.74-6.118,6.119V41.44h147.528V14.203C247.097,10.824,244.358,8.084,240.977,8.084z"/>
	<path style="fill:#EA6428;" d="M497.795,409.066h-10.772H474.11h-10.772h-66.375H386.19h-12.913h-10.772
		c-3.379,0-6.12,2.741-6.12,6.12v27.236h147.531v-27.236C503.916,411.808,501.175,409.066,497.795,409.066z"/>
</g>
<path style="fill:#CCC3A8;" d="M433.177,288.337v-89.764c0-5.176-4.198-9.371-9.372-9.371H256.468c-5.175,0-9.37,4.196-9.37,9.371
	v295.972c0,5.175,4.196,9.371,9.37,9.371h106.036v-0.001l0,0c-3.379,0-6.12-2.739-6.12-6.118v-55.375v-27.236
	c0-3.379,2.741-6.12,6.12-6.12h10.772h12.913h10.772h36.215v-93.781"/>
<path style="fill:#4BAF78;" d="M212.166,503.916h21.996c7.143,0,12.935-5.79,12.935-12.935V316.359
	c0-7.143-5.792-12.935-12.935-12.935H21.019c-7.143,0-12.935,5.792-12.935,12.935v174.622c0,7.144,5.792,12.935,12.935,12.935H184.5
	"/>
<path style="fill:#FFB92E;" d="M247.097,115.867c0-7.143-5.792-12.935-12.935-12.935H21.019c-7.143,0-12.935,5.792-12.935,12.935
	v174.622c0,7.144,5.792,12.935,12.935,12.935h213.143c7.143,0,12.935-5.79,12.935-12.935V115.867z"/>
<g>
	<polygon style="fill:#7C7A75;" points="155.617,203.178 155.617,102.932 99.566,102.932 99.566,203.178 127.591,181.026 	"/>
	<polygon style="fill:#7C7A75;" points="155.617,403.669 155.617,303.424 99.566,303.424 99.566,403.669 127.591,381.518 	"/>
	<polygon style="fill:#7C7A75;" points="368.162,289.446 368.162,189.201 312.112,189.201 312.112,289.446 340.137,267.295 	"/>
</g>
<path style="fill:#EF711D;" d="M129.467,96.812v-82.61c0-3.379,2.739-6.119,6.118-6.119H124.8h-10.772
	c-3.379,0-6.118,2.74-6.118,6.119v82.611c0,3.379,2.739,6.119,6.118,6.119H124.8h10.785
	C132.206,102.931,129.467,100.191,129.467,96.812z"/>
<path style="fill:#DD4D14;" d="M129.467,14.202c0-3.379,2.739-6.119,6.118-6.119H124.8h-10.772c-3.379,0-6.118,2.74-6.118,6.119
	v27.236h21.558V14.202z"/>
<path style="fill:#C9B585;" d="M276.997,494.543v-85.478v-93.782v-26.947v-89.764c0-5.176,4.196-9.371,9.37-9.371h-21.556h-0.002
	c-5.175,0-9.37,4.196-9.37,9.371v89.764v26.947v93.782v85.478c0,5.175,4.196,9.371,9.37,9.371h21.558
	C281.194,503.915,276.997,499.717,276.997,494.543z"/>
<path style="fill:#EF711D;" d="M386.284,497.796v-82.611c0-3.379,2.741-6.12,6.12-6.12h-10.785h-10.772
	c-3.379,0-6.12,2.741-6.12,6.12v82.611c0,3.379,2.741,6.118,6.12,6.118h10.772h10.785
	C389.025,503.914,386.284,501.175,386.284,497.796z"/>
<path style="fill:#299956;" d="M37.985,490.98V316.358c0-7.143,5.792-12.935,12.935-12.935H29.362
	c-7.143,0-12.935,5.792-12.935,12.935V490.98c0,7.144,5.792,12.935,12.935,12.935H50.92
	C43.777,503.915,37.985,498.124,37.985,490.98z"/>
<path style="fill:#EF9A1D;" d="M37.985,290.488V115.866c0-7.143,5.792-12.935,12.935-12.935H29.362
	c-7.143,0-12.935,5.792-12.935,12.935v174.622c0,7.144,5.792,12.935,12.935,12.935H50.92
	C43.777,303.423,37.985,297.633,37.985,290.488z"/>
<path style="fill:#DD4D14;" d="M386.284,415.186c0-3.379,2.741-6.12,6.12-6.12h-10.785h-10.772c-3.379,0-6.12,2.741-6.12,6.12
	v27.236h21.558V415.186z"/>
<g>
	<path style="fill:#605E5A;" d="M94.974,303.423v100.245c0,2.066,1.181,3.95,3.041,4.851c1.86,0.901,4.07,0.658,5.691-0.622
		l24.682-19.511v-84.963H94.974z"/>
	<path style="fill:#605E5A;" d="M94.974,102.931v100.245c0,2.066,1.181,3.95,3.041,4.851c1.86,0.901,4.07,0.66,5.691-0.623
		l24.682-19.51v-84.963H94.974z"/>
	<path style="fill:#605E5A;" d="M340.936,189.2H307.52v100.245c0,2.066,1.181,3.95,3.041,4.851c1.86,0.902,4.07,0.658,5.691-0.622
		l24.683-19.511h0.001V189.2z"/>
</g>
<g>
	<path style="fill:#231F20;" d="M213.223,234.382h-46.349c-4.466,0-8.084,3.62-8.084,8.084c0,4.465,3.618,8.084,8.084,8.084h46.349
		c4.466,0,8.084-3.62,8.084-8.084C221.307,238.001,217.688,234.382,213.223,234.382z"/>
	<path style="fill:#231F20;" d="M455.949,463.973H409.6c-4.466,0-8.084,3.62-8.084,8.084c0,4.466,3.618,8.084,8.084,8.084h46.349
		c4.466,0,8.084-3.618,8.084-8.084C464.034,467.593,460.415,463.973,455.949,463.973z"/>
	<path style="fill:#231F20;" d="M198.333,62.996h-46.349c-4.466,0-8.084,3.62-8.084,8.084s3.618,8.084,8.084,8.084h46.349
		c4.466,0,8.084-3.62,8.084-8.084C206.417,66.616,202.798,62.996,198.333,62.996z"/>
	<path style="fill:#231F20;" d="M213.223,261.329h-46.349c-4.466,0-8.084,3.618-8.084,8.084s3.618,8.084,8.084,8.084h46.349
		c4.466,0,8.084-3.618,8.084-8.084C221.307,264.949,217.688,261.329,213.223,261.329z"/>
	<path style="fill:#231F20;" d="M166.873,448.883h46.349c4.466,0,8.084-3.618,8.084-8.084c0-4.465-3.618-8.084-8.084-8.084h-46.349
		c-4.466,0-8.084,3.62-8.084,8.084C158.789,445.264,162.409,448.883,166.873,448.883z"/>
	<path style="fill:#231F20;" d="M166.873,475.83h46.349c4.466,0,8.084-3.618,8.084-8.084c0-4.465-3.618-8.084-8.084-8.084h-46.349
		c-4.466,0-8.084,3.62-8.084,8.084C158.789,472.212,162.409,475.83,166.873,475.83z"/>
	<path style="fill:#231F20;" d="M497.795,400.982h-56.535v-85.698c0-4.466-3.618-8.084-8.084-8.084s-8.084,3.618-8.084,8.084v85.698
		h-62.589c-7.833,0-14.204,6.371-14.204,14.204v27.236v53.409h-91.831c-0.709,0-1.286-0.578-1.286-1.287v-3.564V316.359v-25.869
		v-91.916c0-0.71,0.577-1.287,1.286-1.287h47.56v92.161c0,3.099,1.772,5.925,4.561,7.276s6.106,0.988,8.536-0.933l23.013-18.189
		l23.013,18.189c1.455,1.15,3.227,1.742,5.013,1.742c1.198,0,2.403-0.266,3.523-0.808c2.79-1.351,4.561-4.177,4.561-7.276v-92.161
		h47.558c0.71,0,1.288,0.578,1.288,1.287v89.764c0,4.466,3.618,8.084,8.084,8.084s8.084-3.618,8.084-8.084v-89.764
		c0-9.626-7.832-17.455-17.457-17.455h-55.642h-56.051h-55.644c-0.434,0-0.86,0.033-1.286,0.065v-65.315
		c0-3.843-1.054-7.436-2.862-10.54c1.788-2.376,2.862-5.318,2.862-8.514V41.439V14.203C255.181,6.371,248.809,0,240.977,0H105.684
		c-7.832,0-14.202,6.371-14.202,14.203V41.44v53.41H21.019C9.429,94.849,0,104.279,0,115.868V290.49
		c0,4.879,1.686,9.364,4.486,12.935C1.686,306.995,0,311.48,0,316.359v174.622C0,502.571,9.429,512,21.019,512H184.5
		c4.466,0,8.084-3.618,8.084-8.084c0-4.466-3.618-8.084-8.084-8.084H21.019c-2.674,0-4.851-2.176-4.851-4.851V316.359
		c0-2.675,2.176-4.851,4.851-4.851h70.463v92.161c0,3.099,1.772,5.925,4.561,7.276c2.787,1.351,6.106,0.988,8.536-0.933
		l23.013-18.189l23.013,18.189c1.455,1.15,3.227,1.742,5.013,1.742c1.198,0,2.403-0.266,3.523-0.808
		c2.79-1.351,4.561-4.177,4.561-7.276v-92.161h70.461c2.674,0,4.851,2.175,4.851,4.851v174.622c0,2.674-2.176,4.851-4.851,4.851
		h-21.996c-4.466,0-8.084,3.618-8.084,8.084c0,4.466,3.618,8.084,8.084,8.084h21.996c4.345,0,8.386-1.326,11.74-3.593
		c2.937,2.244,6.591,3.593,10.564,3.593l105.862-0.001C362.386,512,362.442,512,362.5,512l0.002-0.001h135.293
		c7.833,0,14.204-6.37,14.204-14.202v-55.375v-27.236C512,407.354,505.629,400.982,497.795,400.982z M360.078,197.285v75.467
		l-14.929-11.799c-1.468-1.161-3.241-1.742-5.012-1.742c-1.771,0-3.544,0.581-5.012,1.742l-14.929,11.799v-75.467H360.078z
		 M107.65,111.017h39.882v75.467l-14.929-11.8c-1.468-1.162-3.241-1.742-5.012-1.742c-1.771,0-3.544,0.581-5.012,1.742l-14.929,11.8
		V111.017z M155.617,94.848H107.65V49.523h131.362v45.325h-4.851H155.617z M107.65,16.168h131.362v17.186H107.65V16.168z
		 M147.533,386.975l-14.929-11.799c-1.468-1.161-3.241-1.742-5.012-1.742c-1.771,0-3.544,0.581-5.012,1.742l-14.929,11.799v-75.467
		h39.882V386.975z M155.617,295.34H99.566H21.019c-2.674,0-4.851-2.176-4.851-4.851V115.867c0-2.674,2.176-4.851,4.851-4.851h70.463
		v92.161c0,3.099,1.772,5.925,4.561,7.276c2.787,1.352,6.106,0.988,8.536-0.933l23.013-18.189l23.013,18.189
		c1.455,1.15,3.227,1.742,5.013,1.742c1.198,0,2.403-0.266,3.523-0.808c2.79-1.351,4.561-4.177,4.561-7.276v-92.161h70.461
		c2.674,0,4.851,2.176,4.851,4.851v82.706v91.916c0,2.674-2.176,4.851-4.851,4.851H155.617z M364.467,417.151h68.709h62.655v17.187
		H364.467V417.151z M364.467,495.83v-45.324h131.364v45.324L364.467,495.83L364.467,495.83z"/>
</g>
<g>
</g>
<g>
</g>
<g>
</g>
<g>
</g>
<g>
</g>
<g>
</g>
<g>
</g>
<g>
</g>
<g>
</g>
<g>
</g>
<g>
</g>
<g>
</g>
<g>
</g>
<g>
</g>
<g>
</g>
</svg>
